<?xml version="1.0" standalone="no"?>
<!DOCTYPE svg PUBLIC "-//W3C//DTD SVG 20010904//EN"
 "http://www.w3.org/TR/2001/REC-SVG-20010904/DTD/svg10.dtd">
<svg version="1.0" xmlns="http://www.w3.org/2000/svg"
 width="5013.000000pt" height="1575.000000pt" viewBox="0 0 5013.000000 1575.000000"
 preserveAspectRatio="xMidYMid meet">

<g transform="translate(0.000000,1575.000000) scale(0.100000,-0.100000)"
fill="#000000" stroke="none">
<path d="M11517 15700 c-10 -14 -58 -81 -107 -150 -49 -69 -100 -141 -114
-160 -25 -35 -234 -333 -523 -747 -81 -117 -198 -284 -258 -370 -61 -87 -136
-194 -166 -238 -64 -92 -1817 -2605 -1870 -2680 -20 -27 -57 -81 -84 -120 -65
-94 -173 -248 -216 -310 -20 -27 -56 -79 -81 -115 -24 -36 -129 -186 -233
-335 -104 -148 -206 -296 -228 -327 -22 -32 -47 -59 -56 -62 -17 -5 -67 -7
-711 -31 -217 -8 -512 -20 -655 -25 -143 -6 -438 -17 -655 -25 -606 -23 -1235
-47 -1945 -75 -137 -6 -376 -14 -530 -20 -154 -5 -379 -14 -500 -20 -121 -5
-359 -15 -530 -21 -170 -6 -324 -14 -342 -17 l-32 -7 72 -51 c40 -28 304 -218
587 -424 283 -205 619 -448 745 -540 127 -91 329 -238 450 -325 251 -181 597
-431 880 -637 50 -36 207 -150 350 -253 143 -104 298 -216 345 -250 47 -34
128 -93 181 -131 53 -38 155 -112 227 -164 72 -52 132 -100 132 -105 0 -6 -8
-26 -18 -45 -53 -100 -136 -257 -240 -450 -63 -118 -165 -309 -227 -425 -62
-115 -168 -313 -235 -440 -68 -126 -182 -340 -255 -475 -73 -135 -156 -290
-185 -345 -29 -55 -85 -161 -125 -235 -74 -138 -272 -508 -353 -660 -25 -47
-89 -166 -142 -265 -54 -99 -121 -225 -150 -280 -29 -55 -81 -152 -115 -215
-34 -63 -86 -160 -115 -215 -29 -55 -94 -176 -145 -270 -50 -93 -118 -219
-150 -280 -32 -60 -86 -162 -120 -225 -35 -63 -86 -160 -115 -215 -29 -55 -81
-152 -115 -215 -34 -63 -86 -160 -115 -215 -29 -55 -97 -181 -150 -280 -53
-99 -117 -218 -142 -265 -148 -278 -337 -628 -352 -652 -20 -33 1 -28 75 16
75 44 543 316 612 355 20 11 54 31 75 42 20 12 150 86 287 166 138 80 381 221
540 313 160 92 403 233 540 313 138 80 273 157 300 172 28 16 163 93 300 173
138 80 378 219 535 310 157 90 400 231 540 312 140 81 397 230 570 330 173
100 430 249 570 330 140 81 386 223 545 315 160 92 378 218 485 280 246 142
232 135 274 135 29 0 63 -22 213 -135 1712 -1293 2595 -1956 2599 -1952 5 4
-37 128 -186 557 -45 129 -88 253 -95 275 -8 22 -46 132 -85 245 -40 113 -78
223 -85 245 -8 22 -52 153 -100 290 -47 138 -147 430 -221 650 -293 866 -285
842 -536 1535 -133 369 -263 741 -273 782 -12 48 -28 51 -76 15 -74 -56 -290
-204 -599 -412 -162 -109 -356 -240 -430 -290 -135 -92 -372 -252 -720 -487
-467 -315 -573 -387 -687 -465 -68 -46 -123 -79 -123 -74 0 6 14 41 31 78 17
38 63 138 101 223 39 85 88 193 109 238 22 46 39 85 39 87 0 2 23 51 50 110
28 59 50 108 50 110 0 2 20 45 44 97 23 51 74 161 111 243 37 83 85 188 106
233 22 46 39 85 39 87 0 2 23 51 50 110 28 59 50 108 50 110 0 2 23 51 50 110
28 59 50 108 50 110 0 6 91 201 125 267 l35 67 -103 85 c-109 90 -1384 1362
-1375 1371 6 7 260 19 793 40 975 38 1153 45 1350 55 116 5 224 10 242 10 25
0 35 7 53 37 21 36 289 412 820 1153 156 217 413 577 572 798 158 222 288 400
289 395 2 -15 -9 -191 -81 -1311 -25 -391 -36 -527 -55 -672 -33 -254 -55
-443 -55 -473 l0 -32 152 0 c84 0 788 -6 1563 -13 l1410 -12 215 85 c118 47
224 90 235 95 11 5 142 57 290 115 149 58 279 110 290 115 11 5 85 34 165 65
80 31 154 60 165 65 25 11 66 27 398 156 50 20 101 40 112 45 11 4 73 29 138
54 64 25 170 65 235 90 64 25 126 50 137 55 11 5 52 21 90 35 39 14 79 30 90
35 11 5 70 29 130 54 118 47 391 159 440 181 17 8 86 37 155 65 69 28 134 55
145 60 11 5 49 21 85 35 36 15 79 32 95 40 17 7 63 25 104 39 41 15 81 31 90
36 10 6 -983 10 -2655 10 l-2671 0 -7 32 c-3 17 -13 119 -21 227 -8 108 -17
216 -20 241 -3 25 -12 133 -21 240 -17 221 -38 483 -54 675 -5 72 -17 216 -26
320 -8 105 -19 244 -25 310 -11 134 -33 400 -54 665 -16 196 -47 580 -70 860
-9 102 -22 264 -30 360 -8 96 -24 285 -35 420 -11 135 -27 328 -36 430 -8 102
-21 264 -29 360 -9 96 -22 263 -31 370 -8 107 -18 227 -22 265 l-7 70 -18 -25z"/>
<path d="M13652 7803 c-17 -38 -51 -111 -75 -163 -25 -52 -54 -117 -66 -143
-12 -26 -49 -105 -82 -174 -33 -69 -58 -130 -57 -134 2 -5 674 -9 1563 -9
1453 0 1561 1 1572 17 7 9 23 42 35 72 19 47 22 76 23 181 0 122 -1 127 -33
192 -49 99 -144 176 -261 212 -25 7 -427 11 -1312 13 l-1276 3 -31 -67z"/>
<path d="M18027 7849 c-153 -43 -312 -148 -419 -277 -42 -51 -88 -126 -141
-230 -43 -85 -76 -156 -74 -158 4 -5 4569 -6 4573 -2 8 9 123 260 134 293 8
22 14 80 14 131 0 80 -4 97 -27 136 -29 50 -81 89 -147 112 -40 14 -255 16
-1945 15 -1830 -1 -1902 -2 -1968 -20z"/>
<path d="M23145 7768 c-44 -94 -111 -237 -170 -363 -13 -27 -42 -88 -64 -134
-22 -47 -39 -86 -37 -88 5 -6 4538 -3 4547 3 5 3 9 9 9 14 0 10 28 72 105 235
154 324 195 414 195 426 0 5 -918 9 -2268 9 l-2269 0 -48 -102z"/>
<path d="M28577 7773 c-25 -54 -59 -127 -75 -163 -16 -36 -53 -114 -82 -175
-101 -213 -110 -233 -110 -244 0 -8 602 -12 2188 -13 1204 -2 2195 -2 2203 0
14 3 23 19 114 217 26 55 57 123 70 150 103 219 134 285 140 304 l6 21 -2204
0 -2204 0 -46 -97z"/>
<path d="M33945 7828 c-10 -24 -42 -92 -70 -153 -29 -60 -60 -128 -70 -150
-10 -22 -49 -105 -87 -183 -37 -79 -68 -148 -68 -153 0 -5 231 -10 533 -11
445 -3 535 -1 550 11 9 8 17 17 17 21 0 4 22 54 49 111 26 57 60 129 74 159
50 110 109 236 138 295 51 105 105 95 -509 95 l-538 0 -19 -42z"/>
<path d="M39375 7828 c-10 -24 -40 -89 -66 -145 -26 -56 -58 -123 -70 -150
-12 -26 -50 -107 -85 -180 -34 -73 -65 -141 -69 -153 l-6 -20 2071 0 2070 0 9
23 c5 12 37 81 71 152 34 72 72 153 85 180 13 28 49 104 79 169 31 66 59 130
62 143 l6 23 -2069 0 -2069 0 -19 -42z"/>
<path d="M44411 7835 c-12 -20 -21 -38 -21 -39 0 -5 -86 -190 -203 -438 -36
-76 -68 -146 -72 -158 l-6 -20 1148 0 c2815 -1 3686 1 3693 5 5 3 20 29 34 58
29 63 97 208 136 292 15 33 55 118 89 188 33 71 61 133 61 138 0 12 -1097 12
-1169 -1 -31 -5 -92 -14 -136 -20 -319 -45 -803 -227 -1212 -456 -24 -13 -64
-36 -90 -51 -27 -14 -61 -34 -78 -43 -16 -9 -59 -33 -95 -53 l-65 -36 -105 85
c-316 255 -620 484 -685 516 -123 61 -133 62 -691 66 l-512 2 -21 -35z"/>
<path d="M10441 7568 c-6 -68 -18 -172 -26 -233 -8 -60 -24 -191 -35 -290 -12
-99 -28 -229 -35 -290 -8 -60 -17 -144 -20 -185 l-6 -75 98 -47 c54 -26 211
-107 348 -180 138 -74 351 -187 475 -252 124 -65 246 -132 273 -147 l47 -29 0
33 c0 17 -4 113 -10 212 -5 99 -17 331 -25 515 -27 601 -36 773 -40 781 -3 4
-17 9 -32 12 -16 2 -125 35 -243 72 -216 67 -307 95 -390 120 -95 29 -237 73
-283 89 -84 28 -82 32 -96 -106z"/>
<path d="M14904 6912 c-96 -78 -257 -208 -713 -579 -212 -173 -502 -409 -645
-525 -142 -116 -281 -224 -309 -242 l-50 -31 -841 -5 -840 -5 -18 -35 c-18
-36 -111 -235 -143 -305 -14 -30 -135 -281 -163 -337 -2 -5 529 -8 1180 -8
1024 1 1186 3 1202 15 11 8 26 15 33 15 7 0 48 16 90 36 43 20 101 47 129 60
28 13 75 43 105 68 55 46 379 310 1024 835 198 161 382 311 409 334 27 23 64
53 82 67 18 14 88 70 155 125 67 55 149 123 184 150 34 28 95 77 135 110 98
80 141 115 259 210 55 44 101 86 101 93 0 9 -136 12 -647 12 l-648 0 -71 -58z"/>
<path d="M17292 6958 c-5 -7 -27 -49 -47 -93 -20 -44 -50 -107 -65 -140 -15
-33 -51 -109 -80 -170 -28 -60 -63 -134 -76 -162 -13 -29 -35 -77 -48 -105
-13 -29 -46 -100 -74 -158 -27 -58 -74 -159 -105 -225 -30 -66 -75 -163 -100
-215 -211 -449 -212 -451 -225 -529 -12 -68 5 -155 41 -210 16 -24 50 -54 87
-75 l61 -36 2115 0 c1738 0 2114 2 2114 13 0 7 9 31 19 53 10 21 32 68 49 104
16 36 51 110 77 165 26 55 63 133 81 173 19 40 45 96 59 124 14 28 25 53 25
55 0 2 -780 3 -1734 3 -954 0 -1737 4 -1740 8 -3 5 3 26 14 48 18 38 72 153
132 284 16 36 47 101 68 145 21 44 49 105 63 135 14 30 44 96 67 145 23 50 52
113 65 140 56 122 76 167 125 270 90 189 110 235 110 250 0 13 -70 15 -534 15
-415 0 -536 -3 -544 -12z"/>
<path d="M20753 6908 c-17 -35 -45 -96 -63 -135 l-33 -73 -1021 -2 -1021 -3
-20 -40 c-12 -22 -33 -68 -48 -102 -27 -61 -70 -152 -188 -402 -33 -68 -59
-128 -59 -133 0 -5 587 -7 1398 -6 l1397 3 73 28 c84 32 125 55 202 111 103
75 217 207 262 306 9 19 39 84 67 143 28 60 51 110 51 112 0 1 25 54 55 118
30 63 55 120 55 126 0 8 -154 11 -538 11 l-539 0 -30 -62z"/>
<path d="M24512 6957 c-6 -7 -26 -46 -45 -87 -19 -41 -58 -124 -87 -185 -50
-106 -73 -156 -124 -267 -13 -29 -44 -96 -69 -148 -90 -190 -147 -312 -147
-316 0 -1 -25 -56 -56 -121 -31 -65 -67 -143 -81 -173 -14 -30 -43 -93 -64
-138 -22 -46 -53 -111 -68 -145 -16 -34 -52 -111 -80 -171 -28 -59 -51 -110
-51 -112 0 -1 -25 -55 -55 -119 -30 -63 -55 -120 -55 -125 0 -6 194 -10 545
-10 328 0 545 4 545 9 0 9 27 70 107 241 20 41 48 102 63 135 15 33 49 104 74
158 25 55 46 100 46 102 0 2 27 61 61 131 64 134 107 226 218 467 16 34 50
106 75 160 25 55 46 100 46 102 0 1 29 63 64 136 66 139 89 189 150 324 20 44
43 92 51 107 35 62 68 58 -519 58 -417 0 -536 -3 -544 -13z"/>
<path d="M28205 6962 c-10 -7 -53 -91 -94 -183 -11 -25 -45 -99 -76 -164 -30
-64 -55 -118 -55 -120 0 -1 -24 -54 -54 -116 -112 -238 -174 -369 -219 -469
-13 -30 -47 -103 -75 -162 -28 -59 -74 -158 -103 -220 -28 -62 -74 -160 -101
-218 -52 -110 -81 -171 -118 -255 -13 -27 -40 -86 -61 -130 -22 -44 -39 -81
-39 -82 0 -2 245 -3 546 -3 l545 0 15 36 c8 20 33 75 56 122 22 48 52 112 66
142 13 30 53 115 88 189 35 73 64 135 64 136 0 2 20 45 44 97 125 268 169 363
204 438 13 30 53 115 88 189 35 73 64 135 64 136 0 3 21 48 137 295 25 52 56
120 70 150 14 30 38 83 55 117 16 35 27 67 23 73 -7 12 -1054 14 -1070 2z"/>
<path d="M33542 6957 c-11 -13 -87 -172 -200 -417 -16 -36 -50 -108 -75 -160
-25 -52 -88 -187 -140 -300 -111 -240 -156 -337 -205 -440 -187 -401 -188
-401 -202 -479 -12 -70 1 -147 35 -201 29 -45 49 -62 109 -94 l49 -26 2087 0
2088 0 22 48 c13 26 38 81 57 122 19 41 52 111 73 155 21 44 48 103 61 130 12
28 41 90 65 139 24 48 44 90 44 92 0 2 -771 4 -1714 4 -1029 0 -1717 4 -1720
9 -4 5 25 75 64 156 38 80 70 148 70 150 0 2 23 52 51 112 28 59 60 128 71
153 11 25 40 86 63 135 24 50 54 115 68 145 14 30 44 96 67 145 23 50 53 115
67 145 33 73 91 198 109 234 29 59 61 56 -520 56 -427 0 -536 -3 -544 -13z"/>
<path d="M40488 6938 c-9 -18 -36 -73 -59 -123 -23 -49 -60 -128 -81 -175 -42
-88 -70 -149 -108 -235 -13 -27 -51 -110 -86 -183 -35 -74 -64 -135 -64 -137
0 -2 -23 -52 -51 -112 -28 -59 -60 -128 -71 -153 -11 -25 -42 -91 -69 -147
-27 -56 -49 -107 -49 -112 0 -29 -56 -31 -792 -31 l-754 0 -19 -42 c-10 -24
-47 -104 -83 -178 -35 -74 -74 -157 -87 -185 -105 -225 -125 -268 -125 -276 0
-5 888 -9 2075 -9 1763 0 2075 2 2075 14 0 8 22 60 49 117 65 139 103 221 139
299 16 36 50 108 76 160 25 52 46 96 46 97 0 2 -336 3 -747 3 -412 0 -754 4
-761 8 -12 8 -5 27 115 282 20 41 57 122 83 180 26 58 69 150 95 205 78 166
125 267 125 270 0 1 29 63 64 136 35 74 75 161 90 194 15 33 35 77 46 98 37
72 77 67 -518 67 l-537 0 -17 -32z"/>
<path d="M45300 6961 c0 -4 30 -31 68 -59 68 -50 140 -108 270 -217 42 -34 72
-67 72 -78 0 -71 -183 -440 -230 -464 -25 -13 -205 -97 -290 -135 -25 -11 -76
-35 -115 -53 -38 -18 -106 -50 -150 -70 -44 -21 -122 -57 -173 -81 -52 -24
-95 -44 -97 -44 -1 0 -50 -22 -108 -49 -139 -66 -210 -95 -303 -127 -147 -49
-200 -54 -568 -54 l-342 0 -19 -42 c-10 -24 -47 -103 -82 -176 -35 -73 -63
-134 -63 -136 0 -2 -34 -74 -75 -161 -41 -86 -75 -161 -75 -166 0 -14 1203 -6
1260 8 25 6 74 17 110 23 165 31 432 115 605 189 28 12 68 30 90 39 45 19 323
159 400 202 28 15 91 49 140 75 50 26 125 67 167 91 43 24 84 44 91 44 8 0 22
-10 33 -21 30 -34 368 -327 479 -416 167 -133 243 -182 320 -205 38 -11 74
-25 80 -29 13 -12 1075 -12 1075 0 0 6 25 63 56 128 31 65 70 147 86 183 17
36 47 101 68 145 20 44 51 110 69 146 17 37 31 70 31 73 0 3 -143 6 -317 6
-175 0 -350 5 -389 10 -230 30 -484 177 -817 475 -97 86 -99 88 -92 124 12 68
92 247 144 325 58 86 22 63 346 216 44 21 132 62 195 93 63 30 172 82 241 115
70 33 130 65 134 71 4 8 -331 11 -1159 11 -647 0 -1166 -4 -1166 -9z"/>
<path d="M29517 6682 c-10 -10 -17 -22 -17 -26 0 -5 -22 -54 -49 -110 -27 -55
-60 -126 -74 -156 -44 -97 -94 -203 -131 -279 -20 -41 -36 -80 -36 -88 0 -11
223 -13 1300 -13 l1301 0 55 117 c30 64 64 137 76 162 34 76 137 293 163 345
13 27 22 53 19 57 -3 5 -587 9 -1298 9 -1240 0 -1294 -1 -1309 -18z"/>
</g>
</svg>
